<svg xmlns="http://www.w3.org/2000/svg" viewBox="0 0 512 512">
  <!-- Background Circle (Optional, for better visibility on dark tabs) -->
  <circle cx="256" cy="256" r="256" fill="#8B0012" />
  
  <!-- Icon Content (White for contrast) -->
  <g transform="translate(106, 106) scale(0.6)" fill="white">
    <!-- Open Book -->
    <path d="M464 64H320c-45.5 0-85.2 19.3-112 49.6C181.2 83.3 141.5 64 96 64H48C21.5 64 0 85.5 0 112v288c0 26.5 21.5 48 48 48h48c45.5 0 85.2-19.3 112-49.6 26.8 30.3 66.5 49.6 112 49.6h96c26.5 0 48-21.5 48-48V112c0-26.5-21.5-48-48-48zm-24 288H320c-33.6 0-62.9-15.6-82.2-39.7l-9.8-12.2-9.8 12.2c-19.3 24.1-48.6 39.7-82.2 39.7H96c-8.8 0-16-7.2-16-16V128c0-8.8 7.2-16 16-16h48c33.6 0 62.9 15.6 82.2 39.7l9.8 12.2 9.8-12.2c19.3-24.1 48.6-39.7 82.2-39.7h96c8.8 0 16 7.2 16 16v208c0 8.8-7.2 16-16 16z"/>
    
    <!-- Pi Symbol (Centered above the book) -->
    <path d="M144 64h224c8.8 0 16-7.2 16-16s-7.2-16-16-16H144c-8.8 0-16 7.2-16 16s7.2 16 16 16zm24 32c-8.8 0-16 7.2-16 16v160c0 8.8 7.2 16 16 16s16-7.2 16-16V112h112v160c0 8.8 7.2 16 16 16s16-7.2 16-16V112c0-8.8-7.2-16-16-16H168z" transform="translate(70, -40) scale(1.2)" />
  </g>
</svg>